<svg width="45" height="45" viewBox="0 0 45 45" fill="none" xmlns="http://www.w3.org/2000/svg">
<path d="M35.625 18.7975V9.37503C35.625 7.30687 33.9432 5.625 31.8749 5.625H3.74994C1.68179 5.625 0 7.30679 0 9.37503V28.125C0 30.1932 1.68179 31.875 3.75003 31.875H24.7748C26.0031 36.1969 29.9771 39.375 34.6875 39.375C36.5003 39.375 38.2828 38.898 39.8447 37.9944C40.2924 37.7353 40.4462 37.1622 40.1861 36.7136C39.927 36.265 39.353 36.1102 38.9053 36.3721C37.6291 37.1101 36.1706 37.5 34.6874 37.5C30.0347 37.5 26.2499 33.7152 26.2499 29.0625C26.2499 24.4099 30.0348 20.625 34.6874 20.625C39.3401 20.625 43.1249 24.4099 43.1249 29.0625V30.0001C43.1249 31.0337 42.2836 31.875 41.25 31.875C40.2164 31.875 39.375 31.0337 39.375 30.0001V26.25C39.375 25.7318 38.9557 25.3125 38.4375 25.3125C38.1853 25.3125 37.9587 25.4145 37.7904 25.5762C36.9618 24.8378 35.882 24.375 34.6874 24.375C32.1029 24.375 30 26.4779 30 29.0624C30 31.647 32.1029 33.75 34.6875 33.75C36.0846 33.75 37.3269 33.1233 38.1865 32.1502C38.8656 33.115 39.9829 33.75 41.2501 33.75C43.3182 33.75 45 32.0682 45 30V29.0624C45 23.6926 40.873 19.2734 35.625 18.7975ZM3.75003 7.49997H31.875C31.9141 7.49997 31.9467 7.51992 31.9852 7.52229L18.5834 18.5229C18.1064 18.8233 17.4152 18.761 17.1048 18.5706L3.64096 7.52212C3.67901 7.51983 3.71136 7.49997 3.75003 7.49997ZM33.75 18.7975C28.502 19.2734 24.375 23.6926 24.375 29.0625C24.375 29.3789 24.3944 29.6908 24.4224 30.0001H3.75003C2.71644 30.0001 1.87506 29.1587 1.87506 28.1251V9.37503C1.87506 9.10951 1.93368 8.85876 2.0337 8.62972L15.998 20.0812C16.5437 20.4374 17.1708 20.6251 17.8126 20.6251C18.4297 20.6251 19.033 20.4512 19.564 20.1216C19.6171 20.0932 19.6675 20.0594 19.7151 20.02L33.5913 8.62954C33.6914 8.85876 33.7501 9.10951 33.7501 9.37512V18.7975H33.75ZM34.6875 31.875C33.1366 31.875 31.875 30.6134 31.875 29.0625C31.875 27.5116 33.1366 26.25 34.6875 26.25C36.2384 26.25 37.5 27.5116 37.5 29.0625C37.5 30.6134 36.2384 31.875 34.6875 31.875Z" fill="white"/>
</svg>
