<svg width="45" height="45" viewBox="0 0 45 45" fill="none" xmlns="http://www.w3.org/2000/svg">
<path d="M30.0125 29.7321C34.8011 22.218 34.1991 23.1555 34.3371 22.9596C36.0805 20.5006 37.002 17.6064 37.002 14.5898C37.002 6.59004 30.5103 0 22.5 0C14.5158 0 7.99805 6.57703 7.99805 14.5898C7.99805 17.6045 8.93883 20.5744 10.7394 23.0665L14.9873 29.7322C10.4455 30.4301 2.72461 32.51 2.72461 37.0898C2.72461 38.7593 3.81428 41.1385 9.00545 42.9925C12.6302 44.287 17.4226 45 22.5 45C31.9944 45 42.2754 42.3218 42.2754 37.0898C42.2754 32.5092 34.5635 30.4315 30.0125 29.7321ZM12.9418 21.6163C12.9273 21.5936 12.9122 21.5714 12.8964 21.5496C11.3981 19.4884 10.6348 17.0456 10.6348 14.5898C10.6348 7.99647 15.9439 2.63672 22.5 2.63672C29.0425 2.63672 34.3652 7.99884 34.3652 14.5898C34.3652 17.0496 33.6163 19.4095 32.1991 21.4164C32.0721 21.5839 32.7347 20.5545 22.5 36.6143L12.9418 21.6163ZM22.5 42.3633C12.1294 42.3633 5.36133 39.315 5.36133 37.0898C5.36133 35.5943 8.83898 33.1352 16.5452 32.1767L21.3882 39.776C21.6302 40.1558 22.0495 40.3857 22.4999 40.3857C22.9504 40.3857 23.3697 40.1557 23.6116 39.776L28.4545 32.1767C36.1609 33.1352 39.6387 35.5943 39.6387 37.0898C39.6387 39.2961 32.9315 42.3633 22.5 42.3633Z" fill="white"/>
<path d="M22.5 7.99805C18.8653 7.99805 15.9082 10.9551 15.9082 14.5898C15.9082 18.2246 18.8653 21.1816 22.5 21.1816C26.1347 21.1816 29.0918 18.2246 29.0918 14.5898C29.0918 10.9551 26.1347 7.99805 22.5 7.99805ZM22.5 18.5449C20.3192 18.5449 18.5449 16.7707 18.5449 14.5898C18.5449 12.409 20.3192 10.6348 22.5 10.6348C24.6808 10.6348 26.4551 12.409 26.4551 14.5898C26.4551 16.7707 24.6808 18.5449 22.5 18.5449Z" fill="white"/>
</svg>
