<svg width="45" height="45" viewBox="0 0 45 45" fill="none" xmlns="http://www.w3.org/2000/svg">
<g clip-path="url(#clip0_1_73)">
<path d="M35.5634 27.8759C34.6422 26.9167 33.531 26.4038 32.3533 26.4038C31.1851 26.4038 30.0644 26.9072 29.1051 27.8664L26.1039 30.8581C25.8569 30.7252 25.61 30.6017 25.3726 30.4782C25.0306 30.3073 24.7077 30.1458 24.4323 29.9749C21.621 28.1893 19.0662 25.8624 16.6158 22.8517C15.4286 21.3511 14.6308 20.0879 14.0515 18.8057C14.8303 18.0934 15.5521 17.3526 16.2549 16.6403C16.5208 16.3744 16.7868 16.0989 17.0527 15.833C19.0472 13.8385 19.0472 11.2552 17.0527 9.26069L14.4599 6.66786C14.1654 6.37344 13.8615 6.06951 13.5766 5.76559C13.0067 5.17674 12.4084 4.5689 11.7911 3.99905C10.8698 3.08728 9.76807 2.60291 8.60937 2.60291C7.45067 2.60291 6.32995 3.08728 5.3802 3.99905C5.3707 4.00854 5.3707 4.00854 5.3612 4.01804L2.13203 7.2757C0.916346 8.49139 0.223024 9.97301 0.0710635 11.6921C-0.156878 14.4654 0.659912 17.0487 1.28675 18.7393C2.82536 22.8897 5.12376 26.7362 8.55238 30.8581C12.7123 35.8254 17.7175 39.7479 23.4351 42.5116C25.6195 43.5469 28.5352 44.7721 31.7929 44.981C31.9924 44.9905 32.2013 45 32.3913 45C34.5852 45 36.4277 44.2117 37.8713 42.6446C37.8808 42.6256 37.8998 42.6161 37.9093 42.5971C38.4032 41.9988 38.9731 41.4574 39.5714 40.8781C39.9798 40.4887 40.3977 40.0803 40.8061 39.6529C41.7463 38.6746 42.2402 37.5349 42.2402 36.3667C42.2402 35.189 41.7369 34.0588 40.7776 33.1091L35.5634 27.8759ZM38.9636 37.8768C38.9541 37.8768 38.9541 37.8863 38.9636 37.8768C38.5932 38.2757 38.2133 38.6366 37.8049 39.0355C37.1875 39.6244 36.5607 40.2417 35.9718 40.9351C35.0126 41.9608 33.8824 42.4452 32.4008 42.4452C32.2583 42.4452 32.1063 42.4452 31.9639 42.4357C29.1431 42.2552 26.5218 41.1535 24.5558 40.2132C19.1802 37.6109 14.4599 33.9164 10.5374 29.2341C7.29871 25.3306 5.13326 21.7215 3.69913 17.8465C2.81586 15.4816 2.49294 13.6391 2.6354 11.901C2.73038 10.7898 3.15777 9.86854 3.94607 9.08024L7.18473 5.84157C7.65012 5.40469 8.14399 5.16725 8.62836 5.16725C9.22671 5.16725 9.71109 5.52815 10.015 5.83208C10.0245 5.84157 10.034 5.85107 10.0435 5.86057C10.6229 6.40193 11.1737 6.96229 11.7531 7.56063C12.0475 7.86455 12.3514 8.16848 12.6553 8.48189L15.2482 11.0747C16.2549 12.0815 16.2549 13.0122 15.2482 14.019C14.9727 14.2944 14.7068 14.5698 14.4314 14.8358C13.6336 15.6526 12.8738 16.4124 12.0475 17.1532C12.0285 17.1722 12.0095 17.1817 12 17.2007C11.1832 18.0174 11.3352 18.8152 11.5061 19.3566C11.5156 19.3851 11.5251 19.4136 11.5346 19.4421C12.2089 21.0757 13.1587 22.6143 14.6023 24.4473L14.6118 24.4568C17.2332 27.686 19.9969 30.2028 23.0457 32.1308C23.4351 32.3778 23.834 32.5772 24.2139 32.7672C24.5558 32.9381 24.8787 33.0996 25.1541 33.2705C25.1921 33.2895 25.2301 33.318 25.2681 33.337C25.591 33.4985 25.8949 33.5744 26.2083 33.5744C26.9966 33.5744 27.4905 33.0806 27.652 32.9191L30.9001 29.6709C31.2231 29.348 31.7359 28.9586 32.3343 28.9586C32.9231 28.9586 33.4075 29.329 33.7019 29.652C33.7114 29.6614 33.7114 29.6615 33.7209 29.6709L38.9541 34.9041C39.9323 35.8729 39.9323 36.8701 38.9636 37.8768Z" fill="white"/>
<path d="M24.3191 10.7043C26.8074 11.1222 29.0678 12.2999 30.8724 14.1044C32.6769 15.909 33.8451 18.1694 34.2725 20.6578C34.377 21.2846 34.9183 21.7215 35.5357 21.7215C35.6117 21.7215 35.6782 21.712 35.7541 21.7025C36.457 21.5885 36.9223 20.9237 36.8084 20.2209C36.2955 17.2101 34.8709 14.4653 32.6959 12.2904C30.521 10.1155 27.7762 8.69083 24.7654 8.17796C24.0626 8.06399 23.4073 8.52937 23.2838 9.22269C23.1604 9.91602 23.6162 10.5903 24.3191 10.7043Z" fill="white"/>
<path d="M44.9477 19.8505C44.1025 14.8928 41.7661 10.3814 38.176 6.79134C34.5859 3.20126 30.0746 0.86486 25.1168 0.0195779C24.4235 -0.10389 23.7682 0.370988 23.6447 1.06431C23.5307 1.76713 23.9961 2.42246 24.6989 2.54593C29.1248 3.29624 33.1613 5.3952 36.3714 8.59587C39.5816 11.806 41.6711 15.8425 42.4214 20.2684C42.5259 20.8952 43.0672 21.3321 43.6846 21.3321C43.7605 21.3321 43.827 21.3226 43.903 21.3131C44.5963 21.2086 45.0712 20.5438 44.9477 19.8505Z" fill="white"/>
</g>
<defs>
<clipPath id="clip0_1_73">
<rect width="45" height="45" fill="white"/>
</clipPath>
</defs>
</svg>
